<svg width="478" height="190" viewBox="0 0 478 190" fill="none" xmlns="http://www.w3.org/2000/svg">
<path d="M334.682 151.756V152.256H335.182H421.66V185.533V186.033H422.16H453.675H454.175V185.533V152.256H477H477.5V151.756V124.644V124.144H477H454.175V3.48889V2.98889H453.675H434.946H434.446H422.516H422.016H412.545H412.27L412.123 3.2212L334.759 125.266L334.682 125.388V125.533V151.756ZM421.367 41.3222H422.016V124.144H369.512V123.367L421.367 41.3222Z" stroke="black"/>
<path d="M200.618 178.296L200.62 178.298C211.221 185.773 223.908 189.5 238.656 189.5C253.403 189.5 266.06 185.773 276.602 178.298C287.199 170.825 295.296 160.015 300.904 145.897C306.572 131.719 309.397 114.645 309.397 94.6889C309.397 74.852 306.572 57.8966 300.904 43.837C295.295 29.7773 287.198 19.0257 276.6 11.6125C266 4.19767 253.344 0.5 238.656 0.5C223.968 0.5 211.311 4.19767 200.711 11.6125L200.71 11.6133C190.172 19.0263 182.076 29.7771 176.408 43.8353L176.407 43.8363C170.799 57.8365 167.974 74.7917 167.914 94.6874V94.6889C167.914 114.585 170.71 131.629 176.318 145.806L176.319 145.809C181.986 159.925 190.082 170.764 200.618 178.296ZM265.2 144.124L265.2 144.124C258.686 155.197 249.846 160.678 238.656 160.678C231.18 160.678 224.742 158.233 219.316 153.34C213.885 148.383 209.65 141.007 206.64 131.167C203.691 121.332 202.24 109.178 202.299 94.6909L202.299 94.6903C202.358 73.0374 205.678 56.6973 212.201 45.6091L212.201 45.6081C218.716 34.4745 227.527 28.9667 238.656 28.9667C246.07 28.9667 252.478 31.4394 257.904 36.3916L257.906 36.3935C263.338 41.2919 267.573 48.609 270.583 58.3915C273.591 68.166 275.101 80.261 275.101 94.6889C275.101 116.519 271.781 132.977 265.2 144.124Z" stroke="black"/>
<path d="M0.5 151.756V152.256H1H87.4784V185.533V186.033H87.9784H119.494H119.994V185.533V152.256H142.818H143.318V151.756V124.644V124.144H142.818H119.994V3.48889V2.98889H119.494H100.764H100.264H88.3345H87.8345H78.3636H78.0886L77.9413 3.2212L0.577698 125.266L0.5 125.388V125.533V151.756ZM87.1856 41.3222H87.8345V124.144H35.3299V123.367L87.1856 41.3222Z" stroke="black"/>
</svg>
