<svg width="332" height="332" viewBox="0 0 332 332" fill="none" xmlns="http://www.w3.org/2000/svg">
<path d="M315.321 188.379C315.321 198.658 313.788 207.852 310.788 215.96C307.755 224.037 302.456 231.762 294.858 239.104C287.228 246.479 277.013 253.821 264.148 261.131C264.052 261.195 263.925 261.259 263.829 261.323C255.912 265.824 246.718 270.644 236.215 275.752L235.864 275.912L184.628 301.546C190.214 298.673 195.322 295.896 199.983 293.246C200.078 293.182 200.206 293.118 200.302 293.054C201.962 292.097 203.59 291.171 205.154 290.213C215.753 283.829 224.372 277.444 231.012 271.028C238.61 263.685 243.909 255.96 246.942 247.883C249.942 239.775 251.475 230.581 251.475 220.302C251.475 199.264 245.313 178.163 233.023 156.998C220.765 135.801 205.442 119.936 187.15 109.369C176.998 103.495 167.389 100.399 158.195 100.048C153.95 99.856 149.991 100.271 146.256 101.293C144.117 101.867 142.074 102.665 140.127 103.655L198.067 74.6687L203.686 71.8595C205.729 70.806 207.868 69.976 210.102 69.3695C213.837 68.3479 217.796 67.9329 222.042 68.1245C231.235 68.4756 240.844 71.5722 250.996 77.446C269.288 88.0125 284.611 103.878 296.869 125.075C309.16 146.24 315.321 167.341 315.321 188.379Z" stroke="white" stroke-width="1.59615" stroke-linecap="round" stroke-linejoin="round"/>
<path d="M251.478 220.3C251.478 230.579 249.945 239.773 246.945 247.881C243.912 255.958 238.613 263.683 231.015 271.025C224.375 277.442 215.756 283.827 205.157 290.211C203.593 291.169 201.965 292.095 200.305 293.052C200.209 293.116 200.082 293.18 199.986 293.244C195.325 295.894 190.217 298.671 184.631 301.544C174.958 306.524 163.881 311.887 151.495 317.537L134.512 325.199L117.592 297.968C97.8959 266.237 81.6151 239.294 68.782 217.107C55.8851 194.921 45.6697 175.767 38.0721 159.646C30.4744 143.525 25.1751 129.67 22.1425 118.082C19.1098 106.494 17.6094 95.5443 17.6094 85.265C17.6094 64.2597 23.7386 50.2454 36.029 43.2543L38.9021 41.8177C47.5532 37.955 57.6089 38.1466 69.0693 42.4562C73.0916 43.9247 77.2416 45.9358 81.5832 48.3939C81.7108 48.4577 81.8066 48.5216 81.9343 48.5854C92.0539 54.4274 101.695 62.472 110.857 72.6874C120.019 82.8708 127.904 94.395 134.512 107.164C136.299 105.792 138.183 104.61 140.13 103.653C142.077 102.663 144.12 101.865 146.259 101.29C149.994 100.269 153.953 99.8539 158.199 100.045C167.392 100.397 177.001 103.493 187.153 109.367C205.445 119.934 220.768 135.799 233.026 156.996C245.317 178.161 251.478 199.262 251.478 220.3Z" stroke="white" stroke-width="1.59615" stroke-linecap="round" stroke-linejoin="round"/>
<path d="M140.128 103.656L139.33 104.039" stroke="white" stroke-width="1.59615" stroke-linecap="round" stroke-linejoin="round"/>
<path d="M198.067 74.6678L140.126 103.654C138.179 104.612 136.296 105.793 134.508 107.165C127.9 94.3963 120.015 82.872 110.853 72.6886C101.691 62.4732 92.0503 54.4286 81.9307 48.5866C81.803 48.5228 81.7073 48.4589 81.5796 48.3951C77.238 45.937 73.088 43.9259 69.0657 42.4574C57.6053 38.1478 47.5496 37.9563 38.8984 41.8189L102.745 9.89587C111.396 6.03317 121.451 6.22471 132.912 10.5343C137.03 12.0347 141.308 14.1097 145.777 16.6636C155.896 22.5055 165.537 30.5501 174.699 40.7655C183.733 50.7893 191.491 62.122 198.067 74.6678Z" stroke="white" stroke-width="1.59615" stroke-linecap="round" stroke-linejoin="round"/>
</svg>
