<svg width="25" height="25" viewBox="0 0 25 25" fill="none" xmlns="http://www.w3.org/2000/svg">
<path d="M12.5 25C19.4036 25 25 19.4036 25 12.5C25 5.59644 19.4036 0 12.5 0C5.59644 0 0 5.59644 0 12.5C0 19.4036 5.59644 25 12.5 25Z" fill="#4353FF"/>
<path d="M15.1659 11.3422C15.1659 11.3422 14.2742 14.281 14.201 14.5192C14.1757 14.2748 13.5196 9 13.5196 9C12.0003 9 11.1877 10.1367 10.7578 11.336C10.7578 11.336 9.67429 14.2819 9.58007 14.5316C9.57334 14.303 9.41182 11.3713 9.41182 11.3713C9.31929 9.90193 8.03724 9.00794 7 9.00794L8.25512 17C9.84758 16.9929 10.7065 15.8633 11.1557 14.664C11.1557 14.664 12.1139 12.065 12.1534 11.9467C12.1601 12.0579 12.8407 17 12.8407 17C14.439 17 15.2988 15.941 15.7606 14.7822L18 9.00883C16.4286 9.00706 15.5949 10.1367 15.1659 11.3422Z" fill="white"/>
</svg>
