<svg xmlns="http://www.w3.org/2000/svg" xmlns:xlink="http://www.w3.org/1999/xlink" version="1.1" id="Layer_1" x="0px" y="0px" style="enable-background:new 0 0 1080 1080;" xml:space="preserve" viewBox="95.79 366.21 888.43 347.58">
<style type="text/css">
	.st0{fill:#1582BF;}
</style>
<g>
	<g>
		<g>
			<path d="M338.33,663.37l-12.55-20h-9.12v20H301.4v-64.04h28.46c8.78,0,15.36,2.3,19.56,6.85c3.49,3.61,5.25,8.55,5.25,14.7v0.19     c0,9.06-4.23,15.76-12.23,19.37l-1.06,0.48l14.49,22.45H338.33z M316.66,631.03h12.39c6.33,0,10.26-3.38,10.26-8.83V622     c0-5.61-3.77-8.83-10.34-8.83h-12.31V631.03z"/>
		</g>
		<g>
			<path d="M410.2,663.37l-4.54-11.79h-25.41l-4.45,11.79h-15.99l25.73-64.51h15.28l25.72,64.51H410.2z M384.57,639.33h16.86     l-8.37-22.63L384.57,639.33z"/>
		</g>
		<g>
			<polygon points="473.87,663.37 457.78,638.16 450.34,646.92 450.34,663.37 435.07,663.37 435.07,484.21 450.34,472.88      450.34,627.97 473.28,599.33 491.13,599.33 468.45,626.66 492.23,663.37    "/>
		</g>
		<g>
			<polygon points="500.04,663.37 500.04,599.33 548.15,599.33 548.15,612.9 515.13,612.9 515.13,624.9 545.04,624.9 545.04,637.33      515.13,637.33 515.13,649.79 548.6,649.79 548.6,663.37    "/>
		</g>
		<g>
			<polygon points="602.62,663.37 574.49,625.09 574.49,663.37 559.41,663.37 559.41,599.33 574.01,599.33 601.15,636.29      601.15,599.33 616.24,599.33 616.24,663.37    "/>
		</g>
		<g>
			<polygon points="672.48,663.37 644.36,625.08 644.36,663.37 629.27,663.37 629.27,599.33 643.88,599.33 671.01,636.29      671.01,599.33 686.1,599.33 686.1,663.37    "/>
		</g>
		<g>
			<path d="M726.17,664.6c-18.21,0-27.84-10.09-27.84-29.19v-36.08h15.54v35.7c0,9.57,4.55,15.06,12.48,15.06     c7.93,0,12.48-5.32,12.48-14.59v-36.17h15.53v35.6C754.36,654.34,744.61,664.6,726.17,664.6z"/>
		</g>
		<g>
			<path d="M790.07,664.49c-10.79,0-20.64-3.56-27.83-10.05l8.4-10.64c6.19,4.98,12.93,7.5,20.05,7.5c5.08,0,8.12-2.07,8.12-5.53     v-0.18c0-3.47-2.63-5.18-11.26-7.3c-14.75-3.56-22.74-7.77-22.74-19.78v-0.19c0-12.04,9.29-20.13,23.12-20.13     c9.72,0,17.68,2.61,24.31,7.96l-7.56,11.32c-5.56-3.93-11.63-6.09-17.19-6.09c-5.34,0-7.23,2.82-7.23,5.24v0.19     c0,3.92,3.02,5.34,11.54,7.39c13.49,3.11,22.46,7.63,22.46,19.59v0.19C814.26,656.64,804.99,664.49,790.07,664.49z"/>
		</g>
		<g>
			<polygon class="st0" points="533.72,587.33 533.72,396.02 435.07,469.27 435.07,450.59 451.94,438.06 548.72,366.21      548.72,587.33    "/>
		</g>
		<g>
			<polygon class="st0" points="628.72,587.33 628.72,540.06 560.72,483.51 560.72,464 643.72,533.03 643.72,587.33    "/>
		</g>
	</g>
	<g>
		<path d="M139.42,652.04c-1.14,2.98-2.74,5.47-4.8,7.46c-2.06,2-4.55,3.49-7.46,4.47c-2.92,0.98-6.12,1.47-9.6,1.47    c-5.2,0-9.55-0.98-13.07-2.95c-3.52-1.96-6.42-4.31-8.7-7.03L105,645.2c1.9,2.09,3.82,3.72,5.75,4.9    c1.93,1.17,4.07,1.76,6.42,1.76c2.79,0,4.97-0.87,6.56-2.61c1.58-1.74,2.38-4.55,2.38-8.41v-42.87h15.02v43.54    C141.13,645.55,140.56,649.06,139.42,652.04z"/>
	</g>
	<g>
		<path d="M150.92,664.49v-66.54h14.64v53.33h33.18v13.21H150.92z"/>
	</g>
	<g>
		<path d="M257.15,664.49l-6.08-14.92h-28.14l-6.08,14.92h-14.92l28.52-67.02h13.5l28.52,67.02H257.15z M237,615.06l-8.84,21.58    h17.68L237,615.06z"/>
	</g>
	<g>
		<path d="M910.88,644.58c-1.77,4.15-4.23,7.79-7.37,10.93c-3.14,3.14-6.88,5.61-11.22,7.42c-4.34,1.81-9.08,2.71-14.21,2.71    c-5.13,0-9.85-0.9-14.16-2.71c-4.31-1.81-8.03-4.25-11.17-7.32c-3.14-3.07-5.58-6.69-7.32-10.84c-1.74-4.15-2.61-8.6-2.61-13.36    v-0.19c0-4.75,0.89-9.21,2.66-13.36c1.77-4.15,4.23-7.79,7.37-10.93c3.14-3.14,6.88-5.61,11.22-7.42    c4.34-1.81,9.08-2.71,14.21-2.71s9.85,0.9,14.16,2.71c4.31,1.81,8.03,4.25,11.17,7.32c3.14,3.07,5.58,6.69,7.32,10.84    c1.74,4.15,2.61,8.6,2.61,13.36v0.19C913.54,635.98,912.65,640.43,910.88,644.58z M898.24,631.22c0-2.85-0.49-5.54-1.47-8.08    c-0.98-2.53-2.38-4.75-4.18-6.65c-1.81-1.9-3.95-3.41-6.42-4.52c-2.47-1.11-5.17-1.66-8.08-1.66c-2.98,0-5.69,0.54-8.13,1.62    c-2.44,1.08-4.53,2.57-6.27,4.47c-1.74,1.9-3.11,4.1-4.09,6.61c-0.98,2.5-1.47,5.18-1.47,8.03v0.19c0,2.85,0.49,5.55,1.47,8.08    c0.98,2.54,2.38,4.75,4.18,6.65c1.81,1.9,3.93,3.41,6.37,4.52c2.44,1.11,5.15,1.66,8.13,1.66c2.91,0,5.61-0.54,8.08-1.62    c2.47-1.08,4.58-2.57,6.32-4.47c1.74-1.9,3.1-4.1,4.09-6.61c0.98-2.5,1.47-5.18,1.47-8.03V631.22z"/>
		<path d="M954.8,637.97v26.52h-14.64v-26.24l-25.57-40.31h17.11l15.88,26.71l16.16-26.71h16.63L954.8,637.97z"/>
	</g>
	<g>
		<g>
			<path d="M98.02,703.47v-4.76h11.84v4.76H98.02z"/>
		</g>
		<g>
			<path d="M140.18,713.35l-6.9-9.76h-6.18v9.76h-4.88v-28h12.48c1.6,0,3.05,0.21,4.34,0.62c1.29,0.41,2.39,1,3.28,1.76     c0.89,0.76,1.58,1.69,2.06,2.8c0.48,1.11,0.72,2.34,0.72,3.7c0,1.17-0.17,2.22-0.5,3.14c-0.33,0.92-0.79,1.73-1.38,2.44     c-0.59,0.71-1.29,1.31-2.1,1.8c-0.81,0.49-1.71,0.87-2.7,1.14l7.56,10.6H140.18z M138.58,690.98c-1.02-0.79-2.45-1.18-4.29-1.18     h-7.18v9.44h7.22c1.76,0,3.17-0.43,4.21-1.29c1.04-0.86,1.56-2.01,1.56-3.46C140.1,692.94,139.59,691.77,138.58,690.98z"/>
		</g>
		<g>
			<path d="M184.46,713.35h-5.2l-2.84-6.76h-13.24l-2.88,6.76h-5.04l12.32-28.2h4.56L184.46,713.35z M169.78,691.03l-4.8,11.2h9.64     L169.78,691.03z"/>
		</g>
		<g>
			<path d="M220.54,713.35h-5.96l-9.56-12.6l-4.36,4.48v8.12h-4.88v-28h4.88v14.08l13.32-14.08h6.04l-11.64,12.04L220.54,713.35z"/>
		</g>
		<g>
			<path d="M252.02,689.79h-15.84v7.2h14.04v4.44h-14.04v7.48h16.04v4.44H231.3v-28h20.72V689.79z"/>
		</g>
		<g>
			<path d="M284.14,685.35h4.88v28h-4.11l-15.41-19.92v19.92h-4.88v-28h4.55l14.97,19.36V685.35z"/>
		</g>
		<g>
			<path d="M322.26,685.35h4.88v28h-4.11l-15.41-19.92v19.92h-4.88v-28h4.55l14.97,19.36V685.35z"/>
		</g>
		<g>
			<path d="M364.38,701.23c0,2.08-0.29,3.91-0.86,5.48c-0.57,1.57-1.38,2.89-2.42,3.94c-1.04,1.05-2.3,1.84-3.78,2.36     c-1.48,0.52-3.14,0.78-4.98,0.78c-1.81,0-3.45-0.26-4.92-0.78c-1.47-0.52-2.72-1.3-3.76-2.34s-1.84-2.33-2.4-3.86     c-0.56-1.53-0.84-3.31-0.84-5.34v-16.12h4.88v15.92c0,2.61,0.63,4.6,1.89,5.96c1.26,1.36,3,2.04,5.23,2.04     c2.2,0,3.93-0.65,5.19-1.96c1.26-1.31,1.89-3.25,1.89-5.84v-16.12h4.88V701.23z"/>
		</g>
		<g>
			<path d="M382.06,694.11c0.19,0.4,0.53,0.77,1.02,1.12c0.49,0.35,1.18,0.67,2.05,0.96c0.87,0.29,1.97,0.6,3.31,0.92     c1.47,0.37,2.77,0.79,3.91,1.24c1.14,0.45,2.08,1.01,2.83,1.66s1.32,1.41,1.7,2.28c0.39,0.87,0.58,1.89,0.58,3.06     c0,1.33-0.25,2.52-0.73,3.56s-1.17,1.92-2.04,2.64s-1.92,1.27-3.15,1.64c-1.23,0.37-2.57,0.56-4.04,0.56     c-2.16,0-4.23-0.37-6.2-1.1c-1.97-0.73-3.8-1.86-5.48-3.38l2.96-3.52c1.36,1.17,2.73,2.07,4.12,2.7     c1.39,0.63,2.96,0.94,4.72,0.94c1.52,0,2.73-0.32,3.62-0.96c0.89-0.64,1.34-1.51,1.34-2.6c0-0.51-0.09-0.96-0.26-1.36     c-0.17-0.4-0.5-0.77-0.96-1.1c-0.47-0.33-1.11-0.65-1.92-0.94c-0.82-0.29-1.88-0.6-3.19-0.92c-1.5-0.35-2.83-0.73-3.99-1.16     c-1.16-0.43-2.14-0.96-2.93-1.6c-0.79-0.64-1.39-1.41-1.8-2.32c-0.41-0.91-0.62-2.01-0.62-3.32c0-1.23,0.24-2.34,0.71-3.34     s1.13-1.86,1.96-2.58s1.83-1.27,3.01-1.66c1.17-0.39,2.45-0.58,3.84-0.58c2.05,0,3.9,0.3,5.54,0.9s3.18,1.47,4.62,2.62     l-2.64,3.72c-1.28-0.93-2.55-1.65-3.8-2.14c-1.25-0.49-2.52-0.74-3.8-0.74c-1.44,0-2.56,0.33-3.36,0.98     c-0.8,0.65-1.2,1.45-1.2,2.38C381.78,693.23,381.87,693.71,382.06,694.11z"/>
		</g>
		<g>
			<path d="M430.58,698.91c-0.59,1.2-1.39,2.2-2.41,3c-1.02,0.8-2.2,1.41-3.57,1.82c-1.36,0.41-2.82,0.62-4.37,0.62h-5.57v9h-4.88     v-28h11.04c1.63,0,3.1,0.22,4.42,0.66c1.32,0.44,2.44,1.07,3.36,1.9c0.92,0.83,1.63,1.81,2.12,2.96     c0.49,1.15,0.74,2.44,0.74,3.88C431.46,696.33,431.17,697.71,430.58,698.91z M424.81,691.06c-1.1-0.84-2.57-1.26-4.42-1.26h-5.74     v10.12h5.74c1.87,0,3.35-0.46,4.44-1.38c1.08-0.92,1.63-2.15,1.63-3.67C426.46,693.17,425.91,691.9,424.81,691.06z"/>
		</g>
		<g>
			<path d="M467.02,713.35h-5.2l-2.84-6.76h-13.24l-2.88,6.76h-5.04l12.32-28.2h4.56L467.02,713.35z M452.34,691.03l-4.8,11.2h9.64     L452.34,691.03z"/>
		</g>
		<g>
			<path d="M478.34,685.35h4.88v23.56h14.72v4.44h-19.6V685.35z"/>
		</g>
		<g>
			<path d="M524.9,685.35h5.32l-11.64,28.2h-4.32l-11.64-28.2h5.44l8.44,21.52L524.9,685.35z"/>
		</g>
		<g>
			<path d="M562.26,689.79h-15.84v7.2h14.04v4.44h-14.04v7.48h16.04v4.44h-20.92v-28h20.72V689.79z"/>
		</g>
		<g>
			<path d="M574.86,685.35h4.88v23.56h14.72v4.44h-19.6V685.35z"/>
		</g>
		<g>
			<path d="M628.86,701.23c0,2.08-0.29,3.91-0.86,5.48s-1.38,2.89-2.42,3.94c-1.04,1.05-2.3,1.84-3.78,2.36     c-1.48,0.52-3.14,0.78-4.98,0.78c-1.81,0-3.45-0.26-4.92-0.78c-1.47-0.52-2.72-1.3-3.76-2.34s-1.84-2.33-2.4-3.86     c-0.56-1.53-0.84-3.31-0.84-5.34v-16.12h4.88v15.92c0,2.61,0.63,4.6,1.89,5.96c1.26,1.36,3,2.04,5.23,2.04     c2.2,0,3.93-0.65,5.19-1.96c1.26-1.31,1.89-3.25,1.89-5.84v-16.12h4.88V701.23z"/>
		</g>
		<g>
			<path d="M653.98,713.35h-4.96v-23.44h-8.88v-4.56h22.72v4.56h-8.88V713.35z"/>
		</g>
		<g>
			<path d="M693.1,685.35h4.88v23.56h14.72v4.44h-19.6V685.35z"/>
		</g>
		<g>
			<path d="M751.18,713.35h-5.2l-2.84-6.76H729.9l-2.88,6.76h-5.04l12.32-28.2h4.56L751.18,713.35z M736.5,691.03l-4.8,11.2h9.64     L736.5,691.03z"/>
		</g>
		<g>
			<path d="M788.74,713.35h-5.2l-2.84-6.76h-13.24l-2.88,6.76h-5.04l12.32-28.2h4.56L788.74,713.35z M774.06,691.03l-4.8,11.2h9.64     L774.06,691.03z"/>
		</g>
		<g>
			<path d="M824.3,704.85c-0.72,1.72-1.74,3.21-3.06,4.46c-1.32,1.25-2.89,2.24-4.72,2.96c-1.83,0.72-3.83,1.08-6.02,1.08h-10.44     v-28h10.44c2.19,0,4.19,0.35,6.02,1.06c1.83,0.71,3.4,1.69,4.72,2.94c1.32,1.25,2.34,2.73,3.06,4.44     c0.72,1.71,1.08,3.55,1.08,5.52C825.38,701.29,825.02,703.13,824.3,704.85z M819.52,695.56c-0.47-1.17-1.12-2.18-1.97-3.03     s-1.86-1.53-3.07-2.01c-1.2-0.48-2.54-0.72-4.01-0.72h-5.53v19.12h5.53c1.47,0,2.81-0.23,4.01-0.7c1.2-0.47,2.23-1.12,3.07-1.97     s1.5-1.85,1.97-3.01c0.47-1.17,0.7-2.44,0.7-3.84S819.98,696.72,819.52,695.56z"/>
		</g>
		<g>
			<path d="M861.38,701.23c0,2.08-0.29,3.91-0.86,5.48s-1.38,2.89-2.42,3.94c-1.04,1.05-2.3,1.84-3.78,2.36     c-1.48,0.52-3.14,0.78-4.98,0.78c-1.81,0-3.45-0.26-4.92-0.78c-1.47-0.52-2.72-1.3-3.76-2.34s-1.84-2.33-2.4-3.86     c-0.56-1.53-0.84-3.31-0.84-5.34v-16.12h4.88v15.92c0,2.61,0.63,4.6,1.89,5.96c1.26,1.36,3,2.04,5.23,2.04     c2.2,0,3.93-0.65,5.19-1.96c1.26-1.31,1.89-3.25,1.89-5.84v-16.12h4.88V701.23z"/>
		</g>
		<g>
			<path d="M874.66,685.35h4.88v23.56h14.72v4.44h-19.6V685.35z"/>
		</g>
		<g>
			<path d="M905.94,685.35h4.88v23.56h14.72v4.44h-19.6V685.35z"/>
		</g>
		<g>
			<path d="M964.02,713.35h-5.2l-2.84-6.76h-13.24l-2.88,6.76h-5.04l12.32-28.2h4.56L964.02,713.35z M949.34,691.03l-4.8,11.2h9.64     L949.34,691.03z"/>
		</g>
		<g>
			<path d="M972.38,703.47v-4.76h11.84v4.76H972.38z"/>
		</g>
	</g>
</g>
</svg>