<svg xmlns="http://www.w3.org/2000/svg" viewBox="0 0 176 176" width="300" height="300" version="1.1" xmlns:xlink="http://www.w3.org/1999/xlink" xmlns:svgjs="http://svgjs.dev/svgjs"><g width="100%" height="100%" transform="matrix(1,0,0,1,0,0)"><g id="Layer_2" data-name="Layer 2"><g id="_10.linkedin" data-name="10.linkedin"><path d="M159.67,0H16.33A16.33,16.33,0,0,0,0,16.33V159.67A16.33,16.33,0,0,0,16.33,176H159.67A16.33,16.33,0,0,0,176,159.67V16.33A16.33,16.33,0,0,0,159.67,0ZM60,139.28A3.71,3.71,0,0,1,56.29,143H40.48a3.71,3.71,0,0,1-3.72-3.72V73a3.72,3.72,0,0,1,3.72-3.72H56.29A3.72,3.72,0,0,1,60,73ZM48.38,63a15,15,0,1,1,15-15A15,15,0,0,1,48.38,63Zm94.26,76.54a3.41,3.41,0,0,1-3.42,3.42h-17a3.41,3.41,0,0,1-3.42-3.42V108.49c0-4.64,1.36-20.32-12.13-20.32-10.45,0-12.58,10.73-13,15.55v35.86A3.42,3.42,0,0,1,90.3,143H73.88a3.41,3.41,0,0,1-3.41-3.42V72.71a3.41,3.41,0,0,1,3.41-3.42H90.3a3.42,3.42,0,0,1,3.42,3.42v5.78c3.88-5.83,9.63-10.31,21.9-10.31,27.18,0,27,25.38,27,39.32Z" fill="#ffffff" fill-opacity="1" data-original-color="#000000ff" stroke="none" stroke-opacity="1"/></g></g></g></svg>