<svg xmlns="http://www.w3.org/2000/svg" id="Line" viewBox="4 7 56 49.99" fill="#ffffff">
  <path
    d="m56 7h-48c-2.20557 0-4 1.79395-4 4v34c0 2.20605 1.79443 4 4 4h7.27002c.55225 0 1-.44727 1-1s-.44775-1-1-1h-7.27002c-1.10303 0-2-.89746-2-2v-28.00098h13.58643c1.17871 0 2.28662-.45898 3.12061-1.29199.45557-.45508 1.06201-.70605 1.70654-.70605h29.58643c1.29431-.00931 1.32876-1.9812-.00006-1.99999.00006-.00001-29.58636-.00001-29.58636-.00001-1.17871 0-2.28662.45898-3.12061 1.29199-.45557.45508-1.06201.70605-1.70654.70605h-13.58644s0-3.99902 0-3.99902c0-1.10254.89697-2 2-2h48c1.10303 0 2 .89746 2 2v34c0 1.10254-.89697 2-2 2h-7.08984c-.55225 0-1 .44727-1 1s.44775 1 1 1h7.08984c2.20557 0 4-1.79395 4-4v-34c0-2.20605-1.79443-4-4-4z"></path>
  <path
    d="m16.5 11.99969c.02232 1.31442 1.97786 1.31423 2-.00004-.02229-1.31439-1.9779-1.3142-2 .00004z"></path>
  <path
    d="m12.5 11.99969c.02232 1.31442 1.97786 1.31423 2-.00004-.02229-1.31439-1.9779-1.3142-2 .00004z"></path>
  <path
    d="m8.5 11.99969c.02232 1.31442 1.97786 1.31423 2-.00004-.02229-1.31439-1.9779-1.3142-2 .00004z"></path>
  <path
    d="m30.41357 27.08691c1.14844.14258 2.26953.47266 3.33252.98047.49805.2373 1.0957.02734 1.3335-.47168.23828-.49805.02686-1.09473-.47119-1.33301-1.25781-.60059-2.58594-.99121-3.94873-1.16016-4.04102-.49805-7.99268.84766-10.84619 3.69824-10.6323 11.11694 2.72305 28.0287 16.00646 20.2509-.00012.00008 7.06678 7.07527 7.06678 7.07527 1.17611 1.16077 3.07912 1.15652 4.24951-.01367 1.14325-1.12651 1.14773-3.12475-.00931-4.23535.00003 0-7.06442-7.0625-7.06442-7.0625 2.75641-4.39364 2.56904-10.29308-.56652-14.47906.00006 0 3.92346-3.92268 3.92346-3.92268v1.82849c.02022 1.31807 1.98064 1.31036 2-.00004v-4.24215c.00214-.39452-.25001-.77587-.61811-.92297.13065-.19399-4.55863-.01842-4.62551-.07716-.55228.00013-1.00004.44739-1.00004 1.00013s.44775 1 1 1h1.82922l-12.29236 12.28992s-2.83032-2.82996-2.83032-2.82996c-.39062-.39062-1.02344-.39062-1.41406 0l-4.05957 4.05957c-.91438.9269.47965 2.3365 1.41411 1.41401-.00005.00005 3.35249-3.35249 3.35249-3.35249l2.82959 2.8291c.38118.46342 1.22482.27734 1.42075-.00528.10127-.1012 3.56162-3.56085 5.78802-5.78681 1.13273-1.029 1.86408-2.11751 1.9379-1.70802 2.56045 3.74529 2.44888 8.85636-.22271 12.50755-.30441.37963-.06988 1.09914.14479 1.23704.18368.18285 7.65082 7.64733 7.67797 7.67879.33945.41521.36477.97619-.0852 1.41835-.38326.41528-1.18614.22234-1.37183-.04612-.19359-.1929-7.6398-7.65235-7.68339-7.6895-.39308-.35706-.98012-.31586-1.37582.02765-6.59813 4.75042-16.38812.3081-17.16709-7.794-.93352-6.89987 5.44892-13.19679 12.34531-12.16289z"></path>
</svg>