<svg id="Layer_1" enable-background="new 0 0 512 512" viewBox="0 0 512 512" xmlns="http://www.w3.org/2000/svg" fill="#ffffff" width="auto" height="auto">
                <path d="m454.47 14.39h-396.94c-31.71 0-57.51 25.8-57.51 57.51v368.2c0 31.71 25.8 57.52 57.51 57.52h396.94c31.71 0 57.52-25.8 57.52-57.52v-368.2c-.01-31.71-25.81-57.51-57.52-57.51zm-396.94 15.99h396.94c22.9 0 41.53 18.62 41.53 41.52v40.05h-480v-40.05c0-22.9 18.63-41.52 41.53-41.52zm396.94 451.24h-396.94c-22.9 0-41.53-18.63-41.53-41.53v-312.14h480v312.15c0 22.89-18.63 41.52-41.53 41.52zm-373.47-387.44c12.69 0 23.02-10.33 23.02-23.02s-10.33-23.02-23.02-23.02-23.01 10.33-23.01 23.03c0 12.69 10.32 23.01 23.01 23.01zm0-30.04c3.88 0 7.03 3.15 7.03 7.03s-3.15 7.03-7.03 7.03-7.03-3.15-7.03-7.03 3.16-7.03 7.03-7.03zm65.45 30.04c12.71 0 23.05-10.33 23.05-23.02s-10.34-23.02-23.05-23.02c-12.69 0-23.02 10.33-23.02 23.02.01 12.7 10.33 23.02 23.02 23.02zm0-30.04c3.89 0 7.06 3.15 7.06 7.03s-3.17 7.03-7.06 7.03c-3.88 0-7.03-3.15-7.03-7.03.01-3.88 3.16-7.03 7.03-7.03zm65.49 30.04c12.69 0 23.02-10.33 23.02-23.02s-10.33-23.02-23.02-23.02-23.02 10.33-23.02 23.02c0 12.7 10.32 23.02 23.02 23.02zm0-30.04c3.88 0 7.03 3.15 7.03 7.03s-3.15 7.03-7.03 7.03-7.03-3.15-7.03-7.03 3.15-7.03 7.03-7.03zm59.49 7.03c0-4.42 3.58-7.99 7.99-7.99h166.59c4.42 0 7.99 3.58 7.99 7.99s-3.58 7.99-7.99 7.99h-166.58c-4.42 0-8-3.58-8-7.99zm140.07 273.88-46.98-12.06c1.94-9.25 2.93-18.7 2.93-28.19 0-75.26-61.22-136.49-136.46-136.49-75.26 0-136.49 61.23-136.49 136.49 0 75.24 61.23 136.46 136.49 136.46 23.71 0 46.67-6.07 67.06-17.61l7.12 27.73c.86 3.34 3.75 5.75 7.19 5.99.19.01.37.02.56.02 3.22 0 6.15-1.94 7.39-4.96l26.85-65.4 65.4-26.85c3.19-1.31 5.18-4.51 4.94-7.95-.25-3.43-2.67-6.33-6-7.18zm-106.95-27.46c.21-4.33.33-8.61.33-12.8 0-14.74-1.21-28.86-3.45-42.07h42.44c4.9 13.1 7.58 27.28 7.58 42.07 0 8.15-.82 16.26-2.43 24.21zm-194.07-12.79c0-14.79 2.68-28.96 7.58-42.07h42.47c-2.24 13.2-3.45 27.32-3.45 42.07 0 14.74 1.21 28.86 3.45 42.07h-42.47c-4.89-13.11-7.58-27.28-7.58-42.07zm62.59 0c0-14.71 1.35-28.9 3.79-42.07h46.13v84.13h-46.13c-2.44-13.16-3.79-27.35-3.79-42.06zm64.08-119.78c18.82 4.37 35.27 28.42 44.32 61.73h-42.49v-56.64c0-1.94-.69-3.71-1.83-5.09zm-12.33 0c-1.14 1.38-1.83 3.16-1.83 5.09v56.64h-42.49c9.05-33.31 25.5-57.37 44.32-61.73zm-1.83 177.83v56.61c0 1.93.69 3.71 1.83 5.09-18.82-4.36-35.27-28.4-44.32-61.7zm14.17 61.68c1.13-1.38 1.82-3.15 1.82-5.07v-56.61h42.52c-9.29 34.22-26.09 57.36-44.34 61.68zm44.37-112.85c-2.74-.7-5.64.09-7.64 2.09s-2.79 4.9-2.09 7.64l6.53 25.45h-39.35v-84.13h46.13c2.44 13.17 3.79 27.36 3.79 42.07 0 2.87-.06 5.79-.16 8.73zm54.99-64.94h-38.42c-5.55-22.33-14.24-41.23-25.09-54.88 27.14 10.14 49.66 29.79 63.51 54.88zm-147.56-54.88c-10.86 13.65-19.55 32.55-25.1 54.88h-38.44c13.85-25.09 36.39-44.74 63.54-54.88zm-63.53 170.99h38.44c5.55 22.32 14.24 41.21 25.09 54.85-27.14-10.12-49.68-29.77-63.53-54.85zm147.56 54.88c6.15-7.74 11.64-17.25 16.28-28.27l4.64 18.07c-6.66 4.1-13.66 7.5-20.92 10.2zm65-44.22c-1.98.81-3.55 2.38-4.36 4.36l-18.97 46.2-3.71-14.47c-.06-.3-.14-.6-.23-.9l-20.07-78.18 3.26.84c.12.04.25.07.38.1l58.39 14.99c.05.01.09.03.14.05l.27.06 31.11 7.99z"></path>
</svg>
