<svg xmlns="http://www.w3.org/2000/svg" xmlns:svg="http://www.w3.org/2000/svg" version="1.1" id="svg801" width="300" height="300" viewBox="0 0 682.66669 682.66669" xmlns:xlink="http://www.w3.org/1999/xlink" xmlns:svgjs="http://svgjs.dev/svgjs"><g width="100%" height="100%" transform="matrix(1,0,0,1,0,0)"><defs id="defs805">
    <clipPath clipPathUnits="userSpaceOnUse" id="clipPath815">
      <path d="M 0,512 H 512 V 0 H 0 Z" id="path813" fill="#ffffff" fill-opacity="1" data-original-color="#000000ff" stroke="none" stroke-opacity="1"/>
    </clipPath>
  </defs><mask id="custom"><rect id="bg" x="0" y="0" width="100%" height="100%" fill="white"/><g transform="matrix(1.3333333,0,0,-1.3333333,0,682.66667)"><path transform="matrix(1,0,0,1,376,469)" d="m 0,0 c 5.52,0 10,-4.48 10,-10 0,-5.52 -4.48,-10 -10,-10 -5.52,0 -10,4.48 -10,10 0,5.52 4.48,10 10,10" style="fill:#ffffff;fill-opacity:1;fill-rule:nonzero;stroke:none" id="path819"/></g></mask><g mask="url(#custom)"><g id="g807" transform="matrix(1.3333333,0,0,-1.3333333,0,682.66667)">
    <g id="g809">
      <g id="g811" clip-path="url(#clipPath815)">
        <g id="g817" transform="translate(376,469)">
          <path d="m 0,0 c 5.52,0 10,-4.48 10,-10 0,-5.52 -4.48,-10 -10,-10 -5.52,0 -10,4.48 -10,10 0,5.52 4.48,10 10,10" style="fill-rule: nonzero;" id="path819" fill="#ffffff" fill-opacity="1" data-original-color="#000000ff" stroke="none" stroke-opacity="1"/>
        </g>
        <g id="g821" transform="translate(169.9297,101.1001)">
          <path d="m 0,0 -72.17,-23.34 23.34,72.17 c -15.89,24.85 -25.1,54.38 -25.1,86.07 0,88.37 71.63,160 160,160 88.37,0 160,-71.63 160,-160 0,-88.37 -71.63,-160 -160,-160 C 54.38,-25.1 24.851,-15.89 0,0 Z" style="stroke-linecap: round; stroke-linejoin: round; stroke-miterlimit: 10; stroke-dasharray: none;" id="path823" fill="none" fill-opacity="1" stroke="#ffffff" stroke-opacity="1" data-original-stroke-color="#000000ff" stroke-width="20" data-original-stroke-width="20"/>
        </g>
        <g id="g825" transform="translate(462,10)">
          <path d="m 0,0 h -412 c -22.09,0 -40,17.91 -40,40 v 412 c 0,22.09 17.91,40 40,40 H 0 c 22.09,0 40,-17.91 40,-40 V 40 C 40,17.91 22.09,0 0,0 Z" style="stroke-linecap: butt; stroke-linejoin: miter; stroke-miterlimit: 10; stroke-dasharray: none;" id="path827" fill="none" fill-opacity="1" stroke="#ffffff" stroke-opacity="1" data-original-stroke-color="#000000ff" stroke-width="20" data-original-stroke-width="20"/>
        </g>
        <g id="g829" transform="translate(136,459)">
          <path d="M 0,0 H 200" style="stroke-linecap: round; stroke-linejoin: round; stroke-miterlimit: 10; stroke-dasharray: none;" id="path831" fill="none" fill-opacity="1" stroke="#ffffff" stroke-opacity="1" data-original-stroke-color="#000000ff" stroke-width="20" data-original-stroke-width="20"/>
        </g>
        <g id="g833" transform="translate(185.96,322.98)">
          <path d="m 0,0 c -17.55,-17.54 -12.1,-83.2 31.76,-127.06 43.86,-43.86 109.52,-49.31 127.06,-31.76 l 7.94,7.94 c 4.39,4.38 4.39,11.49 0,15.88 L 135,-103.24 c -4.39,4.39 -11.5,4.39 -15.88,0 l -7.95,-7.94 c -8.77,-8.77 -22.99,-8.77 -31.76,0 l -31.76,31.77 c -8.78,8.77 -8.78,22.99 0,31.76 l 7.94,7.94 c 4.38,4.39 4.38,11.5 0,15.89 L 23.82,7.94 c -4.38,4.39 -11.49,4.39 -15.88,0 z" style="stroke-linecap: round; stroke-linejoin: round; stroke-miterlimit: 10; stroke-dasharray: none;" id="path835" fill="none" fill-opacity="1" stroke="#ffffff" stroke-opacity="1" data-original-stroke-color="#000000ff" stroke-width="20" data-original-stroke-width="20"/>
        </g>
      </g>
    </g>
  </g></g></g></svg>