<svg width="263" height="172" viewBox="0 0 263 172" fill="none" xmlns="http://www.w3.org/2000/svg">
<path d="M0 10C0 4.47716 4.47715 0 10 0H94.2888C96.9817 0 99.5609 1.08613 101.443 3.0126L109.557 11.3207C111.439 13.2472 114.018 14.3333 116.711 14.3333H153H215.5H253C258.523 14.3333 263 18.8105 263 24.3333V162C263 167.523 258.523 172 253 172H10C4.47715 172 0 167.523 0 162V10Z" fill="#F2E7D5"/>
<path d="M253 171.5H10C4.7533 171.5 0.5 167.247 0.5 162V10C0.5 4.7533 4.75329 0.5 10 0.5H94.2888C96.8471 0.5 99.2973 1.53182 101.085 3.36197L109.2 11.6701C111.176 13.6929 113.884 14.8333 116.711 14.8333H153H215.5H253C258.247 14.8333 262.5 19.0866 262.5 24.3333V162C262.5 167.247 258.247 171.5 253 171.5Z" stroke="black" stroke-opacity="0.1"/>
</svg>
