<svg width="21" height="20" viewBox="0 0 21 20" fill="none" xmlns="http://www.w3.org/2000/svg">
<g clip-path="url(#clip0_2316_1918)">
<path d="M12.7001 4.16699H14.3667C14.8088 4.16699 15.2327 4.34259 15.5452 4.65515C15.8578 4.96771 16.0334 5.39163 16.0334 5.83366V12.642C16.5896 12.8386 17.0585 13.2255 17.357 13.7343C17.6556 14.2432 17.7646 14.8412 17.6649 15.4226C17.5652 16.0041 17.2631 16.5316 16.812 16.9119C16.361 17.2922 15.79 17.5007 15.2001 17.5007C14.6101 17.5007 14.0391 17.2922 13.5881 16.9119C13.137 16.5316 12.8349 16.0041 12.7352 15.4226C12.6355 14.8412 12.7445 14.2432 13.0431 13.7343C13.3416 13.2255 13.8105 12.8386 14.3667 12.642V5.83366H12.7001V8.33366L8.95006 5.00033L12.7001 1.66699V4.16699ZM4.36672 7.35866C3.81048 7.16207 3.34165 6.77516 3.04309 6.26632C2.74454 5.75748 2.63549 5.15947 2.73521 4.578C2.83494 3.99653 3.13703 3.46904 3.58808 3.08876C4.03913 2.70849 4.6101 2.49992 5.20006 2.49992C5.79002 2.49992 6.36099 2.70849 6.81203 3.08876C7.26308 3.46904 7.56517 3.99653 7.6649 4.578C7.76463 5.15947 7.65558 5.75748 7.35702 6.26632C7.05847 6.77516 6.58963 7.16207 6.03339 7.35866V12.642C6.58963 12.8386 7.05847 13.2255 7.35702 13.7343C7.65558 14.2432 7.76463 14.8412 7.6649 15.4226C7.56517 16.0041 7.26308 16.5316 6.81203 16.9119C6.36099 17.2922 5.79002 17.5007 5.20006 17.5007C4.6101 17.5007 4.03913 17.2922 3.58808 16.9119C3.13703 16.5316 2.83494 16.0041 2.73521 15.4226C2.63549 14.8412 2.74454 14.2432 3.04309 13.7343C3.34165 13.2255 3.81048 12.8386 4.36672 12.642V7.35866ZM5.20006 5.83366C5.42107 5.83366 5.63303 5.74586 5.78931 5.58958C5.94559 5.4333 6.03339 5.22134 6.03339 5.00033C6.03339 4.77931 5.94559 4.56735 5.78931 4.41107C5.63303 4.25479 5.42107 4.16699 5.20006 4.16699C4.97904 4.16699 4.76708 4.25479 4.6108 4.41107C4.45452 4.56735 4.36672 4.77931 4.36672 5.00033C4.36672 5.22134 4.45452 5.4333 4.6108 5.58958C4.76708 5.74586 4.97904 5.83366 5.20006 5.83366ZM5.20006 15.8337C5.42107 15.8337 5.63303 15.7459 5.78931 15.5896C5.94559 15.4333 6.03339 15.2213 6.03339 15.0003C6.03339 14.7793 5.94559 14.5673 5.78931 14.4111C5.63303 14.2548 5.42107 14.167 5.20006 14.167C4.97904 14.167 4.76708 14.2548 4.6108 14.4111C4.45452 14.5673 4.36672 14.7793 4.36672 15.0003C4.36672 15.2213 4.45452 15.4333 4.6108 15.5896C4.76708 15.7459 4.97904 15.8337 5.20006 15.8337ZM15.2001 15.8337C15.4211 15.8337 15.633 15.7459 15.7893 15.5896C15.9456 15.4333 16.0334 15.2213 16.0334 15.0003C16.0334 14.7793 15.9456 14.5673 15.7893 14.4111C15.633 14.2548 15.4211 14.167 15.2001 14.167C14.979 14.167 14.7671 14.2548 14.6108 14.4111C14.4545 14.5673 14.3667 14.7793 14.3667 15.0003C14.3667 15.2213 14.4545 15.4333 14.6108 15.5896C14.7671 15.7459 14.979 15.8337 15.2001 15.8337Z" fill="white"/>
</g>
<defs>
<clipPath id="clip0_2316_1918">
<rect width="20" height="20" fill="white" transform="translate(0.200195)"/>
</clipPath>
</defs>
</svg>
