<svg width="25" height="25" viewBox="0 0 25 25" fill="none" xmlns="http://www.w3.org/2000/svg">
<g clip-path="url(#clip0_2317_1938)">
<path d="M5.13281 8.46991H19.1328V5.46991H5.13281V8.46991ZM14.1328 19.4699V10.4699H5.13281V19.4699H14.1328ZM16.1328 19.4699H19.1328V10.4699H16.1328V19.4699ZM4.13281 3.46991H20.1328C20.398 3.46991 20.6524 3.57527 20.8399 3.7628C21.0275 3.95034 21.1328 4.20469 21.1328 4.46991V20.4699C21.1328 20.7351 21.0275 20.9895 20.8399 21.177C20.6524 21.3646 20.398 21.4699 20.1328 21.4699H4.13281C3.8676 21.4699 3.61324 21.3646 3.42571 21.177C3.23817 20.9895 3.13281 20.7351 3.13281 20.4699V4.46991C3.13281 4.20469 3.23817 3.95034 3.42571 3.7628C3.61324 3.57527 3.8676 3.46991 4.13281 3.46991V3.46991Z" fill="white"/>
</g>
<defs>
<clipPath id="clip0_2317_1938">
<rect width="24" height="24" fill="white" transform="translate(0.132812 0.46991)"/>
</clipPath>
</defs>
</svg>
