<svg width="21" height="20" viewBox="0 0 21 20" fill="none" xmlns="http://www.w3.org/2000/svg">
<g clip-path="url(#clip0_2316_1919)">
<path d="M10.4006 3.77415C12.3581 2.01665 15.3831 2.07498 17.2689 3.96415C19.1539 5.85415 19.2189 8.86415 17.4656 10.8275L10.3989 17.9042L3.33391 10.8275C1.58058 8.86415 1.64641 5.84915 3.53058 3.96415C5.41808 2.07748 8.43725 2.01415 10.4006 3.77415V3.77415ZM16.0889 5.14165C14.8389 3.88998 12.8222 3.83915 11.5139 5.01415L10.4014 6.01248L9.28808 5.01498C7.97558 3.83832 5.96308 3.88998 4.70974 5.14332C3.46808 6.38498 3.40558 8.37248 4.54974 9.68582L10.3997 15.545L16.2497 9.68665C17.3947 8.37248 17.3322 6.38748 16.0889 5.14165V5.14165Z" fill="white"/>
</g>
<defs>
<clipPath id="clip0_2316_1919">
<rect width="20" height="20" fill="white" transform="translate(0.400391)"/>
</clipPath>
</defs>
</svg>
