<svg width="70" height="70" viewBox="0 0 70 70" fill="none" xmlns="http://www.w3.org/2000/svg">
<path d="M35.1516 22.0658H54.3948C55.4993 22.0658 56.3948 22.9612 56.3948 24.0658V28.6264C56.3948 29.731 55.4993 30.6264 54.3948 30.6264H35.1516M22.3135 38.5551L21.0617 42.8067L19.1356 49.1266M38.8936 25.3407L40.9661 27.5814M38.8936 27.5814L40.9661 25.3407M44.6506 25.3407L46.7806 27.5814M44.6506 27.5814L46.7806 25.3407M50.6954 25.3407L52.6527 27.5814M50.6954 27.5814L52.6527 25.3407M17.8231 37.2911L16.1355 42.8067L14.417 49.1266M14.417 49.1266L13.0273 54.2376C12.7471 55.2681 13.3258 56.3369 14.342 56.6654L14.6787 56.7743C15.7423 57.1181 16.8812 56.5235 17.2071 55.4543L19.1356 49.1266M14.417 49.1266H9C7.89543 49.1266 7 48.2312 7 47.1266V42.8067V13.6666C7 12.5621 7.89543 11.6666 9 11.6666H62.1667C63.2712 11.6666 64.1667 12.5621 64.1667 13.6666V42.8067V47.1266C64.1667 48.2312 63.2712 49.1266 62.1667 49.1266H43.3265H28.4735H19.1356" stroke="black"/>
<path d="M31.9455 26.2026C31.9455 30.8438 28.1752 34.608 23.5222 34.608C18.8692 34.608 15.0989 30.8438 15.0989 26.2026C15.0989 21.5614 18.8692 17.7972 23.5222 17.7972C28.1752 17.7972 31.9455 21.5614 31.9455 26.2026Z" stroke="black"/>
<path d="M35.515 26.1451C35.515 32.7853 30.1209 38.17 23.4649 38.17C16.8088 38.17 11.4147 32.7853 11.4147 26.1451C11.4147 19.5048 16.8088 14.1201 23.4649 14.1201C30.1209 14.1201 35.515 19.5048 35.515 26.1451Z" stroke="black"/>
</svg>
