<svg width="70" height="70" viewBox="0 0 70 70" fill="none" xmlns="http://www.w3.org/2000/svg">
<path d="M4.66663 21.2557V13.6666C4.66663 12.5621 5.56206 11.6666 6.66662 11.6666H64.5C65.6045 11.6666 66.5 12.5621 66.5 13.6666V21.2557M4.66663 21.2557V55.1666C4.66663 56.2712 5.56206 57.1666 6.66663 57.1666H64.5C65.6045 57.1666 66.5 56.2712 66.5 55.1666V21.2557M4.66663 21.2557H66.5M22.511 16.7508H27.3511C27.5288 16.7508 27.6729 16.6067 27.6729 16.429V16.429C27.6729 16.2513 27.5288 16.1072 27.3511 16.1072H22.511C22.3333 16.1072 22.1892 16.2513 22.1892 16.429V16.429C22.1892 16.6067 22.3333 16.7508 22.511 16.7508ZM15.2624 16.7508H20.1026C20.2803 16.7508 20.4244 16.6067 20.4244 16.429V16.429C20.4244 16.2513 20.2803 16.1072 20.1026 16.1072H15.2624C15.0847 16.1072 14.9407 16.2513 14.9407 16.429V16.429C14.9407 16.6067 15.0847 16.7508 15.2624 16.7508ZM8.01389 16.7508H12.728C12.9057 16.7508 13.0497 16.6067 13.0497 16.429V16.429C13.0497 16.2513 12.9057 16.1072 12.728 16.1072H8.01389C7.83618 16.1072 7.69211 16.2513 7.69211 16.429V16.429C7.69211 16.6067 7.83618 16.7508 8.01389 16.7508ZM16.8174 32.5798L12.2248 36.8812C11.3934 37.66 11.3794 38.975 12.1941 39.7713L16.8283 44.3004C16.9387 44.4083 16.9528 44.5808 16.8615 44.7052V44.7052C16.7473 44.8605 16.5205 44.875 16.3876 44.7353L11.6068 39.7089C10.8645 38.9285 10.8735 37.7005 11.6271 36.9311L16.3534 32.1054C16.5018 31.9538 16.7524 31.9785 16.8684 32.1562V32.1562C16.9565 32.291 16.935 32.4697 16.8174 32.5798ZM30.292 32.0974L35.1061 36.9174C35.8779 37.6901 35.8871 38.9392 35.1266 39.7232L30.259 44.7415C30.1227 44.882 29.8951 44.875 29.7677 44.7263V44.7263C29.6532 44.5927 29.6626 44.393 29.7892 44.2707L34.4389 39.7797C35.2651 38.9817 35.2509 37.6536 34.4081 36.8734L29.8002 32.6082C29.6662 32.4841 29.6483 32.2785 29.759 32.1332V32.1332C29.8892 31.9623 30.1402 31.9455 30.292 32.0974ZM27.181 28.8131L20.1261 47.8986C20.0491 48.107 19.8106 48.2054 19.609 48.1118V48.1118C19.4288 48.0282 19.3433 47.82 19.4127 47.6338L26.5153 28.566C26.5671 28.4271 26.6997 28.3349 26.848 28.3349V28.3349C27.0952 28.3349 27.2667 28.5812 27.181 28.8131ZM59.3144 46.3915V46.3915C59.3144 46.5134 59.2156 46.6122 59.0937 46.6122H43.3404C43.2169 46.6122 43.1174 46.5108 43.1198 46.3873V46.3873C43.1221 46.267 43.2202 46.1708 43.3404 46.1708H59.0937C59.2156 46.1708 59.3144 46.2696 59.3144 46.3915ZM63.8527 38.5167V38.5167C63.8527 38.687 63.7146 38.825 63.5443 38.825H43.4281C43.2562 38.825 43.1174 38.6844 43.1198 38.5124V38.5124C43.1221 38.3438 43.2595 38.2083 43.4281 38.2083H63.5443C63.7146 38.2083 63.8527 38.3464 63.8527 38.5167ZM54.2089 30.8314V30.8314C54.2089 30.9455 54.1165 31.0379 54.0025 31.0379H43.322C43.2079 31.0379 43.1155 30.9455 43.1155 30.8314V30.8314C43.1155 30.7174 43.2079 30.625 43.322 30.625H54.0025C54.1165 30.625 54.2089 30.7174 54.2089 30.8314Z" stroke="black"/>
</svg>
