<svg width="70" height="70" viewBox="0 0 70 70" fill="none" xmlns="http://www.w3.org/2000/svg">
<path d="M39.5929 17.6717H62.1666C63.2712 17.6717 64.1666 18.5671 64.1666 19.6717V50.7574M39.5929 17.6717L27.9602 12.0926C27.4002 11.824 26.7471 11.8309 26.1929 12.1111L15.1947 17.6717M39.5929 17.6717L27.072 23.5613M39.5929 17.6717V30.8481C39.5929 31.6175 39.1515 32.3187 38.4577 32.6514L27.072 38.1121M15.1947 17.6717L27.072 23.5613M15.1947 17.6717H7.83325C6.72868 17.6717 5.83325 18.5671 5.83325 19.6717V50.7574M15.1947 17.6717V31.4515C15.1947 32.2372 15.6548 32.9501 16.3707 33.2739L27.072 38.1121M27.072 23.5613V38.1121M5.83325 50.7574V55.1666C5.83325 56.2712 6.72868 57.1666 7.83325 57.1666H30.524H39.5929H62.1666C63.2712 57.1666 64.1666 56.2712 64.1666 55.1666V50.7574M5.83325 50.7574H35.5558M64.1666 50.7574H55.5658M49.8904 50.7574V43.085C49.8904 42.1243 49.1117 41.3456 48.151 41.3456V41.3456C47.4286 41.3456 47.0211 40.5157 47.4628 39.9441L51.8223 34.3025C52.2126 33.7974 52.9698 33.7823 53.3799 34.2715L58.0659 39.8612C58.559 40.4493 58.1408 41.3456 57.3733 41.3456V41.3456C56.375 41.3456 55.5658 42.1548 55.5658 43.1531V50.7574M49.8904 50.7574H55.5658M49.8904 50.7574H40.5875M40.5875 50.7574V48.3066C40.5875 47.2684 41.4292 46.4268 42.4674 46.4268V46.4268C43.2698 46.4268 43.7033 45.486 43.1818 44.876L38.9252 39.8974C38.5342 39.44 37.8307 39.4291 37.4256 39.874L32.9237 44.8192C32.3619 45.4362 32.7997 46.4268 33.6341 46.4268V46.4268C34.6954 46.4268 35.5558 47.2871 35.5558 48.3484V50.7574M40.5875 50.7574H35.5558" stroke="black"/>
</svg>
