<svg width="26" height="25" viewBox="0 0 26 25" fill="none" xmlns="http://www.w3.org/2000/svg">
<path d="M9.39791 24.6428C11.6744 24.6428 13.5219 22.7952 13.5219 20.5188V16.3948H9.39791C7.12147 16.3948 5.27393 18.2423 5.27393 20.5188C5.27393 22.7952 7.12147 24.6428 9.39791 24.6428Z" fill="#0ACF83"/>
<path d="M5.27393 12.5001C5.27393 10.3501 7.12147 8.60522 9.39791 8.60522H13.5219V16.395H9.39791C7.12147 16.395 5.27393 14.6501 5.27393 12.5001Z" fill="#A259FF"/>
<path d="M5.27393 4.48117C5.27393 2.20472 7.12147 0.357178 9.39791 0.357178H13.5219V8.60516H9.39791C7.12147 8.60516 5.27393 6.75761 5.27393 4.48117Z" fill="#F24E1E"/>
<path d="M13.522 0.357178H17.4169C19.5668 0.357178 21.3117 2.20472 21.3117 4.48117C21.3117 6.75761 19.5668 8.60516 17.4169 8.60516H13.522V0.357178Z" fill="#FF7262"/>
<path d="M21.3117 12.5001C21.3117 14.6501 19.5668 16.395 17.4169 16.395C15.2669 16.395 13.522 14.6501 13.522 12.5001C13.522 10.3501 15.2669 8.60522 17.4169 8.60522C19.5668 8.60522 21.3117 10.3501 21.3117 12.5001Z" fill="#1ABCFE"/>
</svg>
