<svg width="20" height="25" viewBox="0 0 20 25" fill="none" xmlns="http://www.w3.org/2000/svg">
<path fill-rule="evenodd" clip-rule="evenodd" d="M1.82012 22.5009L0 0H20L18.1779 22.4974L9.98776 25L1.82012 22.5009Z" fill="#E44D26"/>
<path fill-rule="evenodd" clip-rule="evenodd" d="M10 23.0874L16.6181 21.0651L18.1751 1.84009H10V23.0874Z" fill="#F16529"/>
<path d="M6.68683 10.185H10V12.9446H4.397L3.72168 4.59937H10V7.35904H6.45801L6.68683 10.185Z" fill="#EBEBEB"/>
<path d="M9.98903 17.3553L10 17.3521V20.2232L9.98848 20.2268L4.85965 18.6575L4.50887 14.3244H7.02228L7.20054 16.5254L9.98903 17.3553Z" fill="#EBEBEB"/>
<path d="M9.99146 4.59937H16.2635L16.0393 7.35904H9.99146V4.59937Z" fill="white"/>
<path d="M9.99146 12.9446V10.185H15.8115L15.7504 10.926L15.1244 18.6575L9.99146 20.2254V17.3544L12.784 16.5236L13.0746 12.9446H9.99146Z" fill="white"/>
</svg>
