<svg width="70" height="70" viewBox="0 0 70 70" fill="none" xmlns="http://www.w3.org/2000/svg">
<path d="M42.687 30.0447H42.4556V27.6713H42.687V29.1125L43.5266 28.3026H43.801L42.9217 29.1555L43.8737 30.0447H43.5729L42.687 29.2084V30.0447Z" fill="black"/>
<path d="M41.3155 30.081C40.856 30.081 40.5354 29.7075 40.5354 29.172C40.5354 28.6431 40.8594 28.2695 41.3155 28.2695C41.7221 28.2695 42.013 28.5406 42.0824 28.9769H41.8477C41.7948 28.6596 41.5965 28.4712 41.3155 28.4712C40.9916 28.4712 40.7701 28.7555 40.7701 29.172C40.7701 29.5951 40.9916 29.8794 41.3155 29.8794C41.5998 29.8794 41.7948 29.6943 41.8477 29.3703H42.0824C42.0196 29.8133 41.7254 30.081 41.3155 30.081Z" fill="black"/>
<path d="M40.2322 27.8993C40.2322 28.0018 40.1561 28.0745 40.0438 28.0745C39.9347 28.0745 39.8586 28.0018 39.8586 27.8993C39.8586 27.8001 39.9347 27.7274 40.0438 27.7274C40.1561 27.7274 40.2322 27.8001 40.2322 27.8993ZM40.1628 30.0447H39.9314V28.3026H40.1628V30.0447Z" fill="black"/>
<path d="M39.4299 30.0447H39.1985V27.6713H39.4299V30.0447Z" fill="black"/>
<path d="M37.6893 30.0942C37.0282 30.0942 36.5291 29.5554 36.5291 28.8546C36.5291 28.1571 37.0282 27.6216 37.6893 27.6216C38.2546 27.6216 38.7207 28.0017 38.8132 28.567H38.5521C38.4761 28.1439 38.1257 27.8431 37.6893 27.8431C37.1637 27.8431 36.7836 28.2728 36.7836 28.8546C36.7836 29.443 37.1637 29.8727 37.6893 29.8727C38.129 29.8727 38.4794 29.5686 38.5521 29.1455H38.8132C38.7207 29.7107 38.2546 30.0942 37.6893 30.0942Z" fill="black"/>
<path d="M40.1219 52.954V52.954C39.6478 52.954 39.2635 53.3383 39.2635 53.8124V55.0001C39.2635 56.1047 40.1589 57.0001 41.2635 57.0001H49.1865C50.2911 57.0001 51.1865 56.1047 51.1865 55.0001V53.7806C51.1865 53.3241 50.8164 52.954 50.3599 52.954V52.954M40.1219 52.954C40.3152 52.4546 40.5826 51.2235 40.1767 50.1563C40.1425 50.0666 40.0961 49.9825 40.0472 49.9C39.6331 49.2004 38.8904 47.6616 38.723 46.1998V39.9985C38.723 38.7607 38.8848 36.9688 40.1219 36.9288V36.9288C40.8643 36.9048 41.6163 38.1076 41.6163 38.1076M40.1219 52.954H50.3599M41.6163 38.1076V39.5731M41.6163 38.1076C41.6163 38.1076 42.0296 36.9288 42.9517 36.9288C43.8737 36.9288 44.4142 38.1076 44.4142 38.1076M44.4142 38.1076V39.5731M44.4142 38.1076C44.4142 38.1076 45.0332 36.9678 45.7178 36.9288C46.4497 36.8871 47.1804 38.1076 47.1804 38.1076M47.1804 38.1076V39.5731M47.1804 38.1076V32.0862M50.3599 52.954V52.954C48.3353 51.3934 51.1537 48.1031 52.5983 45.9942C53.0866 45.2813 53.5345 44.605 53.7937 44.1608C54.3443 42.957 54.4052 41.267 54.31 39.8929C54.2277 38.7032 53.9008 36.9533 52.7127 37.0562V37.0562V37.0562C51.6328 37.1497 51.5045 38.677 51.5045 39.7609V39.9691C51.5045 40.6344 51.4132 41.3278 50.9503 41.8057C50.8729 41.8856 50.7926 41.9612 50.7118 42.0317C50.3916 42.3114 49.9465 42.0567 49.9465 41.6316V32.0862M47.1804 32.0862V30.6248C47.1804 29.4988 47.3597 27.9114 48.484 27.8489V27.8489V27.8489C49.6952 27.7816 49.9465 29.5507 49.9465 30.7638V32.0862M47.1804 32.0862H36.4307C35.3261 32.0862 34.4307 31.1908 34.4307 30.0862V27.5232C34.4307 26.4186 35.3261 25.5232 36.4307 25.5232H56.5629C57.6675 25.5232 58.5629 26.4186 58.5629 27.5232V30.0862C58.5629 31.1908 57.6675 32.0862 56.5629 32.0862H49.9465" stroke="black"/>
<path d="M6 20.4462V44.6191V49.0362C6 50.1408 6.89543 51.0362 8 51.0362H13.5311H18.3223H27.8038H40.523M6 20.4462V15C6 13.8954 6.89543 13 8 13H62.0461C63.1507 13 64.0461 13.8954 64.0461 15V20.4462M6 20.4462H64.0461M64.0461 20.4462V44.6191V49.0362C64.0461 50.1408 63.1507 51.0362 62.0461 51.0362H49.6615" stroke="black"/>
</svg>
