<svg width="70" height="70" viewBox="0 0 70 70" fill="none" xmlns="http://www.w3.org/2000/svg">
<path d="M40.0748 10H12C10.8954 10 10 10.8954 10 12V57.1803C10 58.2849 10.8954 59.1803 12 59.1803H45.8739C46.9785 59.1803 47.8739 58.2849 47.8739 57.1803V42.1516M40.0748 10V16.3812C40.0748 17.4858 40.9702 18.3812 42.0748 18.3812H47.8739M40.0748 10L43.9744 14.1906L47.8739 18.3812M47.8739 18.3812V29.7374M51.7569 23.5997L53.5897 20.7026C54.1799 19.7697 55.4144 19.4914 56.3478 20.0808L58.3308 21.3332C59.2561 21.9176 59.5399 23.1372 58.9676 24.0701L57.0893 27.1314M51.7569 23.5997L57.0893 27.1314M51.7569 23.5997L47.8739 29.7374M57.0893 27.1314L47.8739 42.1516M47.8739 29.7374L37.9273 45.4599C37.725 45.7798 37.6175 46.1506 37.6175 46.5291V48.8414C37.6175 50.2289 38.9958 51.1948 40.3 50.7213L42.6231 49.8779C43.0484 49.7235 43.4087 49.4295 43.6453 49.0439L47.8739 42.1516M28.0021 25.3919H41.9743C42.1053 25.3919 42.2115 25.4981 42.2115 25.6291V25.6291C42.2115 25.7601 42.1053 25.8663 41.9743 25.8663H15.1552C15.0242 25.8663 14.918 25.7601 14.918 25.6291V25.6291C14.918 25.4981 15.0242 25.3919 15.1552 25.3919H28.0021ZM28.0021 30.2941H36.3112C36.4131 30.2941 36.4957 30.2115 36.4957 30.1096V30.1096C36.4957 30.0077 36.4131 29.9251 36.3112 29.9251H15.1025C15.0006 29.9251 14.918 30.0077 14.918 30.1096V30.1096C14.918 30.2115 15.0006 30.2941 15.1025 30.2941H28.0021ZM28.0021 39.6769H34.8426C34.959 39.6769 35.0534 39.7713 35.0534 39.8877V39.8877C35.0534 40.0042 34.959 40.0986 34.8426 40.0986H15.1289C15.0124 40.0986 14.918 40.0042 14.918 39.8877V39.8877C14.918 39.7713 15.0124 39.6769 15.1289 39.6769H28.0021ZM28.0021 45.2643H33.3732C33.4751 45.2643 33.5577 45.3469 33.5577 45.4488V45.4488C33.5577 45.5507 33.4751 45.6333 33.3732 45.6333H15.1025C15.0006 45.6333 14.918 45.5507 14.918 45.4488V45.4488C14.918 45.3469 15.0006 45.2643 15.1025 45.2643H28.0021ZM28.0021 49.6394H33.3468C33.4633 49.6394 33.5577 49.7338 33.5577 49.8503V49.8503C33.5577 49.9667 33.4633 50.0611 33.3468 50.0611H15.1289C15.0124 50.0611 14.918 49.9667 14.918 49.8503V49.8503C14.918 49.7338 15.0124 49.6394 15.1289 49.6394H28.0021ZM39.3269 35.6971V35.6971C39.3269 35.5661 39.2207 35.4599 39.0897 35.4599H15.1552C15.0242 35.4599 14.918 35.5661 14.918 35.6971V35.6971C14.918 35.8281 15.0242 35.9343 15.1552 35.9343H39.0897C39.2207 35.9343 39.3269 35.8281 39.3269 35.6971Z" stroke="black"/>
</svg>
