<svg xmlns="http://www.w3.org/2000/svg" fill="none" viewBox="8.75 8.75 17.5 17.5">
<path d="M24.8828 8.75H10.1172C9.36182 8.75 8.75 9.36182 8.75 10.1172V24.8828C8.75 25.6382 9.36182 26.25 10.1172 26.25H24.8828C25.6382 26.25 26.25 25.6382 26.25 24.8828V10.1172C26.25 9.36182 25.6382 8.75 24.8828 8.75ZM15.0527 21.1606H13.3472V15.7021H15.0527V21.1606ZM14.1538 15.0186H14.1401C13.5215 15.0186 13.1216 14.6016 13.1216 14.0718C13.1216 13.5317 13.5352 13.125 14.1641 13.125C14.793 13.125 15.1792 13.5317 15.1929 14.0718C15.1963 14.5981 14.7964 15.0186 14.1538 15.0186ZM21.875 21.1606H19.9404V18.3374C19.9404 17.5991 19.6396 17.0933 18.9731 17.0933C18.4639 17.0933 18.1802 17.4351 18.0503 17.7632C18.0024 17.8794 18.0093 18.0435 18.0093 18.2109V21.1606H16.0918C16.0918 21.1606 16.1157 16.1567 16.0918 15.7021H18.0093V16.5601C18.1221 16.1841 18.7339 15.6509 19.7114 15.6509C20.9248 15.6509 21.875 16.437 21.875 18.1255V21.1606Z" fill="black"/>
</svg>